<mxfile host="Electron" agent="Mozilla/5.0 (X11; Linux x86_64) AppleWebKit/537.36 (KHTML, like Gecko) draw.io/28.1.2 Chrome/138.0.7204.243 Electron/37.4.0 Safari/537.36" version="28.1.2">
  <diagram name="Page-1" id="r4Yyqlg2cnH2Bz_2CWot">
    <mxGraphModel dx="836" dy="1886" grid="0" gridSize="10" guides="1" tooltips="1" connect="1" arrows="1" fold="1" page="1" pageScale="1" pageWidth="850" pageHeight="1100" math="0" shadow="0">
      <root>
        <mxCell id="0" />
        <mxCell id="1" parent="0" />
        <mxCell id="GJJN0YybMwhs3v5kO5L5-1" value="96 = [1, 2, 3, 4, 6, 8, 12, 16, 24, 32, 48, 96] n elements = 12" style="text;html=1;align=center;verticalAlign=middle;whiteSpace=wrap;rounded=0;" vertex="1" parent="1">
          <mxGeometry x="340" y="181" width="375" height="30" as="geometry" />
        </mxCell>
        <mxCell id="GJJN0YybMwhs3v5kO5L5-2" value="odd * even = even, so when dividing all numbers to get a smaller one, like divide 30 by 2, we reach a odd...can&#39;t divide any more by 2" style="text;html=1;align=center;verticalAlign=middle;whiteSpace=wrap;rounded=0;" vertex="1" parent="1">
          <mxGeometry x="349" y="235" width="381" height="30" as="geometry" />
        </mxCell>
        <mxCell id="GJJN0YybMwhs3v5kO5L5-3" value="the initial odd is unique, because we multiply it by 2...so there are odd numbers that start, the procedure" style="text;html=1;align=center;verticalAlign=middle;whiteSpace=wrap;rounded=0;" vertex="1" parent="1">
          <mxGeometry x="388" y="281" width="303" height="30" as="geometry" />
        </mxCell>
        <mxCell id="GJJN0YybMwhs3v5kO5L5-4" value="initial number is 11" style="text;html=1;align=center;verticalAlign=middle;whiteSpace=wrap;rounded=0;" vertex="1" parent="1">
          <mxGeometry x="328.5" y="329" width="136" height="30" as="geometry" />
        </mxCell>
        <mxCell id="GJJN0YybMwhs3v5kO5L5-5" value="1,11,22,44,88 ... (one odd , others evens)" style="text;html=1;align=center;verticalAlign=middle;whiteSpace=wrap;rounded=0;" vertex="1" parent="1">
          <mxGeometry x="549.5" y="329" width="190" height="30" as="geometry" />
        </mxCell>
        <mxCell id="GJJN0YybMwhs3v5kO5L5-6" value="initial number is 13" style="text;html=1;align=center;verticalAlign=middle;whiteSpace=wrap;rounded=0;" vertex="1" parent="1">
          <mxGeometry x="335" y="363" width="127" height="30" as="geometry" />
        </mxCell>
        <mxCell id="GJJN0YybMwhs3v5kO5L5-7" value="1,13,26,52,74 (same as above)" style="text;html=1;align=center;verticalAlign=middle;whiteSpace=wrap;rounded=0;" vertex="1" parent="1">
          <mxGeometry x="524.5" y="363" width="215" height="30" as="geometry" />
        </mxCell>
        <mxCell id="GJJN0YybMwhs3v5kO5L5-8" value="initial number is 6" style="text;html=1;align=center;verticalAlign=middle;whiteSpace=wrap;rounded=0;" vertex="1" parent="1">
          <mxGeometry x="335" y="400" width="133" height="30" as="geometry" />
        </mxCell>
        <mxCell id="GJJN0YybMwhs3v5kO5L5-9" value="1,6,12,24,48.... (all evens)" style="text;html=1;align=center;verticalAlign=middle;whiteSpace=wrap;rounded=0;" vertex="1" parent="1">
          <mxGeometry x="537" y="404" width="162" height="30" as="geometry" />
        </mxCell>
        <mxCell id="GJJN0YybMwhs3v5kO5L5-10" value="[1,133,266,532,1064]" style="text;html=1;align=center;verticalAlign=middle;whiteSpace=wrap;rounded=0;" vertex="1" parent="1">
          <mxGeometry x="488.5" y="483" width="60" height="30" as="geometry" />
        </mxCell>
        <mxCell id="GJJN0YybMwhs3v5kO5L5-11" value="133 = [1, 7, 19, 133 } number elements 4" style="text;html=1;align=center;verticalAlign=middle;whiteSpace=wrap;rounded=0;" vertex="1" parent="1">
          <mxGeometry x="377.5" y="518" width="289" height="30" as="geometry" />
        </mxCell>
        <mxCell id="GJJN0YybMwhs3v5kO5L5-12" value="266 = [1, 2, 7, 14, 19, 38, 133, 266 ] number elements&amp;nbsp; 8" style="text;html=1;align=center;verticalAlign=middle;whiteSpace=wrap;rounded=0;" vertex="1" parent="1">
          <mxGeometry x="366.5" y="563" width="347" height="30" as="geometry" />
        </mxCell>
        <mxCell id="GJJN0YybMwhs3v5kO5L5-13" value="532 = [1, 2, 4, 7, 14, 19, 28, 38, 76, 133, 266, 532] number elements&amp;nbsp; 12" style="text;html=1;align=center;verticalAlign=middle;whiteSpace=wrap;rounded=0;" vertex="1" parent="1">
          <mxGeometry x="349.5" y="614" width="390" height="30" as="geometry" />
        </mxCell>
        <mxCell id="GJJN0YybMwhs3v5kO5L5-14" value="&lt;b&gt;&lt;/b&gt;1064 = [1, 2, 4, 7, 8, 14, 19, 28, 38, 56, 76, 133, 152, 266, 532, 1064] number elements&amp;nbsp; &amp;nbsp;16" style="text;html=1;align=center;verticalAlign=middle;whiteSpace=wrap;rounded=0;" vertex="1" parent="1">
          <mxGeometry x="353.5" y="677" width="384" height="30" as="geometry" />
        </mxCell>
        <mxCell id="GJJN0YybMwhs3v5kO5L5-15" value="Example, odd starting number is 133" style="text;html=1;align=center;verticalAlign=middle;whiteSpace=wrap;rounded=0;" vertex="1" parent="1">
          <mxGeometry x="400" y="440" width="213" height="30" as="geometry" />
        </mxCell>
        <mxCell id="GJJN0YybMwhs3v5kO5L5-16" value="same as above...share divisors..." style="text;html=1;align=center;verticalAlign=middle;whiteSpace=wrap;rounded=0;" vertex="1" parent="1">
          <mxGeometry x="321" y="142" width="297" height="30" as="geometry" />
        </mxCell>
        <mxCell id="GJJN0YybMwhs3v5kO5L5-17" value="96 has divisor 24?" style="text;html=1;align=center;verticalAlign=middle;whiteSpace=wrap;rounded=0;" vertex="1" parent="1">
          <mxGeometry x="393" y="-98" width="176" height="30" as="geometry" />
        </mxCell>
        <mxCell id="GJJN0YybMwhs3v5kO5L5-18" value="multiplication by 2 each number, give us a number with factors from the previsous number, and some others. Also on evens, the number&amp;nbsp; of divisors increases 2 by 2, and for starting unique&amp;nbsp; odds, increase 4 by 4" style="text;html=1;align=center;verticalAlign=middle;whiteSpace=wrap;rounded=0;" vertex="1" parent="1">
          <mxGeometry x="314" y="-232" width="353" height="30" as="geometry" />
        </mxCell>
        <mxCell id="GJJN0YybMwhs3v5kO5L5-19" value="12 = [1,2,3,4,6,12] , number elements = 6" style="text;html=1;align=center;verticalAlign=middle;whiteSpace=wrap;rounded=0;" vertex="1" parent="1">
          <mxGeometry x="363.5" y="-36" width="228" height="30" as="geometry" />
        </mxCell>
        <mxCell id="GJJN0YybMwhs3v5kO5L5-20" value="24 = [1, 2, 3, 4, 6, 8, 12, 24] n elements = 8" style="text;html=1;align=center;verticalAlign=middle;whiteSpace=wrap;rounded=0;" vertex="1" parent="1">
          <mxGeometry x="367.5" y="7" width="234" height="30" as="geometry" />
        </mxCell>
        <mxCell id="GJJN0YybMwhs3v5kO5L5-21" value="48&amp;nbsp; = [1, 2, 3, 4, 6, 8, 12, 16, 24, 48] n elements = 10" style="text;html=1;align=center;verticalAlign=middle;whiteSpace=wrap;rounded=0;" vertex="1" parent="1">
          <mxGeometry x="336.5" y="95" width="335" height="30" as="geometry" />
        </mxCell>
        <mxCell id="GJJN0YybMwhs3v5kO5L5-22" value="As we can see 48 has all divisors of 24..." style="text;html=1;align=center;verticalAlign=middle;whiteSpace=wrap;rounded=0;" vertex="1" parent="1">
          <mxGeometry x="358" y="51" width="253" height="30" as="geometry" />
        </mxCell>
        <mxCell id="GJJN0YybMwhs3v5kO5L5-23" value="we can&#39;t divide by 2 every number (odd numbers)...but we can always multiply" style="text;html=1;align=center;verticalAlign=middle;whiteSpace=wrap;rounded=0;" vertex="1" parent="1">
          <mxGeometry x="331" y="-156" width="332" height="30" as="geometry" />
        </mxCell>
        <mxCell id="GJJN0YybMwhs3v5kO5L5-24" value="&lt;font style=&quot;font-size: 22px; color: rgb(255, 0, 0);&quot;&gt;&lt;b&gt;MULTIPLICATION BY 2&lt;/b&gt;&lt;/font&gt;" style="text;html=1;align=center;verticalAlign=middle;whiteSpace=wrap;rounded=0;" vertex="1" parent="1">
          <mxGeometry x="388" y="-328" width="210" height="30" as="geometry" />
        </mxCell>
      </root>
    </mxGraphModel>
  </diagram>
</mxfile>
